<svg xmlns="http://www.w3.org/2000/svg" width="700" height="250" viewBox="120 100 700 250" fill="none"><path fill="#2A2622" d="M 165.0 313.4 L 173.6 314.6 L 182.4 315.9 L 191.3 317.0 L 200.3 318.1 L 209.4 319.1 L 218.6 320.0 L 227.8 320.9 L 237.2 321.6 L 246.6 322.3 L 256.0 322.9 L 265.4 323.5 L 274.9 323.9 L 284.4 324.2 L 293.9 324.5 L 303.4 324.7 L 312.8 324.8 L 322.3 324.8 L 331.6 324.8 L 341.0 324.6 L 350.2 324.4 L 359.4 324.1 L 368.5 323.7 L 377.5 323.3 L 386.4 322.9 L 395.2 322.4 L 403.9 321.8 L 412.4 321.2 L 420.8 320.6 L 429.0 319.9 L 437.1 319.2 L 445.0 318.4 L 452.7 317.6 L 460.2 316.7 L 467.5 315.8 L 474.6 314.9 L 481.5 313.9 L 488.1 312.8 L 494.5 311.7 L 500.7 310.5 L 506.6 309.3 L 510.0 308.5 L 513.2 307.7 L 516.3 306.8 L 519.2 305.9 L 522.1 305.0 L 524.9 304.1 L 527.5 303.1 L 530.1 302.1 L 532.5 301.1 L 534.9 300.0 L 537.1 298.9 L 539.3 297.8 L 541.3 296.6 L 543.2 295.4 L 545.1 294.2 L 546.8 292.9 L 548.4 291.6 L 549.9 290.3 L 551.3 288.9 L 552.6 287.4 L 553.8 285.9 L 554.9 284.3 L 555.8 282.6 L 556.6 280.8 L 557.2 279.0 L 557.6 277.1 L 557.8 275.1 L 557.8 273.2 L 557.5 271.2 L 557.0 269.3 L 556.4 267.5 L 555.5 265.7 L 554.5 264.0 L 553.4 262.5 L 552.1 261.0 L 550.6 259.6 L 549.1 258.2 L 547.5 256.9 L 545.7 255.7 L 543.7 254.5 L 541.5 253.3 L 539.0 252.2 L 536.4 251.3 L 533.7 250.4 L 530.8 249.6 L 527.8 248.9 L 524.6 248.2 L 521.2 247.6 L 517.8 247.0 L 514.2 246.5 L 510.4 246.0 L 506.6 245.5 L 502.6 245.1 L 498.6 244.7 L 494.4 244.3 L 490.2 244.0 L 485.8 243.6 L 481.5 243.3 L 477.0 243.0 L 472.5 242.6 L 468.0 242.3 L 463.4 242.0 L 458.9 241.7 L 454.3 241.4 L 449.7 241.0 L 445.1 240.7 L 440.6 240.3 L 436.1 239.9 L 431.6 239.5 L 427.1 239.1 L 422.8 238.6 L 418.5 238.1 L 414.2 237.6 L 410.1 237.0 L 406.1 236.4 L 402.2 235.8 L 398.4 235.1 L 394.7 234.3 L 391.2 233.6 L 387.9 232.8 L 385.9 232.1 L 383.9 231.5 L 382.0 230.8 L 380.3 230.1 L 378.7 229.5 L 377.3 228.8 L 376.0 228.1 L 374.9 227.4 L 374.0 226.8 L 373.2 226.2 L 372.5 225.6 L 372.1 225.1 L 371.7 224.7 L 371.5 224.4 L 371.4 224.2 L 371.3 224.0 L 371.3 224.0 L 371.3 224.0 L 371.3 224.0 L 371.3 224.0 L 371.3 223.9 L 371.4 223.7 L 371.6 223.4 L 371.9 223.0 L 372.3 222.5 L 372.9 221.9 L 373.7 221.2 L 374.6 220.5 L 375.6 219.8 L 376.9 219.0 L 378.3 218.3 L 379.8 217.5 L 381.5 216.7 L 383.4 215.9 L 385.4 215.1 L 387.6 214.3 L 389.9 213.5 L 392.4 212.7 L 395.0 212.0 L 397.9 211.3 L 404.7 209.5 L 411.8 207.8 L 419.1 206.0 L 426.7 204.2 L 434.4 202.4 L 442.4 200.6 L 450.6 198.8 L 459.0 197.0 L 467.5 195.1 L 476.2 193.3 L 485.1 191.5 L 494.1 189.6 L 503.3 187.8 L 512.5 185.9 L 521.9 184.1 L 531.4 182.3 L 541.0 180.5 L 550.7 178.7 L 560.4 176.9 L 570.2 175.1 L 580.0 173.4 L 589.9 171.7 L 599.8 169.9 L 609.8 168.3 L 619.7 166.6 L 629.6 164.8 L 639.6 163.1 L 649.4 161.4 L 659.3 159.6 L 669.1 157.9 L 678.8 156.1 L 688.5 154.4 L 698.1 152.7 L 707.6 151.0 L 717.0 149.3 L 726.3 147.6 L 735.5 145.9 L 744.5 144.3 L 753.5 142.7 L 762.2 141.1 L 763.0 141.0 L 763.7 140.8 L 764.4 140.7 L 765.2 140.6 L 765.9 140.4 L 766.6 140.3 L 767.3 140.1 L 768.0 140.0 L 768.7 139.8 L 769.4 139.7 L 770.1 139.5 L 770.7 139.3 L 771.4 139.2 L 772.0 139.0 L 772.7 138.8 L 773.3 138.7 L 773.9 138.5 L 774.5 138.3 L 775.1 138.1 L 775.7 138.0 L 776.3 137.8 L 776.9 137.6 L 777.5 137.4 L 778.1 137.2 L 778.6 137.0 L 779.2 136.8 L 779.7 136.6 L 780.2 136.5 L 780.8 136.3 L 781.3 136.1 L 781.8 135.9 L 782.3 135.7 L 782.8 135.5 L 783.3 135.3 L 783.8 135.1 L 784.3 135.0 L 784.7 134.8 L 785.2 134.7 L 785.7 134.5 L 786.1 134.4 L 785.9 133.6 L 785.4 133.8 L 785.0 133.9 L 784.5 134.1 L 784.0 134.2 L 783.5 134.4 L 783.1 134.5 L 782.5 134.6 L 782.0 134.7 L 781.5 134.8 L 781.0 134.9 L 780.4 135.0 L 779.9 135.1 L 779.3 135.2 L 778.8 135.3 L 778.2 135.4 L 777.6 135.5 L 777.0 135.5 L 776.5 135.6 L 775.9 135.7 L 775.3 135.8 L 774.7 135.9 L 774.0 136.0 L 773.4 136.0 L 772.8 136.1 L 772.2 136.2 L 771.5 136.2 L 770.9 136.3 L 770.2 136.4 L 769.5 136.4 L 768.9 136.5 L 768.2 136.5 L 767.5 136.6 L 766.8 136.6 L 766.1 136.7 L 765.4 136.7 L 764.7 136.8 L 764.0 136.8 L 763.3 136.8 L 762.5 136.9 L 761.8 136.9 L 752.8 137.3 L 743.8 137.8 L 734.5 138.5 L 725.2 139.1 L 715.8 139.9 L 706.2 140.8 L 696.5 141.7 L 686.8 142.7 L 677.0 143.8 L 667.1 144.9 L 657.2 146.2 L 647.3 147.5 L 637.3 148.9 L 627.3 150.3 L 617.3 151.9 L 607.3 153.5 L 597.3 155.2 L 587.4 156.9 L 577.4 158.6 L 567.6 160.4 L 557.7 162.1 L 547.9 163.9 L 538.2 165.7 L 528.6 167.6 L 519.1 169.4 L 509.7 171.2 L 500.3 173.1 L 491.1 174.9 L 482.1 176.8 L 473.2 178.6 L 464.4 180.5 L 455.8 182.3 L 447.4 184.2 L 439.1 186.0 L 431.1 187.8 L 423.3 189.6 L 415.6 191.4 L 408.2 193.2 L 401.1 195.0 L 394.1 196.7 L 391.1 197.5 L 388.2 198.4 L 385.4 199.2 L 382.7 200.1 L 380.1 201.0 L 377.7 202.0 L 375.4 203.0 L 373.2 204.0 L 371.2 205.0 L 369.2 206.1 L 367.4 207.3 L 365.7 208.4 L 364.1 209.7 L 362.7 211.0 L 361.3 212.3 L 360.1 213.8 L 359.0 215.4 L 358.0 217.0 L 357.2 218.8 L 356.7 220.7 L 356.4 222.7 L 356.3 224.7 L 356.6 226.7 L 357.0 228.6 L 357.7 230.4 L 358.6 232.1 L 359.7 233.7 L 360.9 235.2 L 362.2 236.5 L 363.7 237.8 L 365.2 239.0 L 366.9 240.1 L 368.6 241.1 L 370.5 242.1 L 372.5 243.1 L 374.5 244.0 L 376.7 244.9 L 379.0 245.7 L 381.4 246.5 L 384.1 247.2 L 387.8 248.2 L 391.6 249.0 L 395.6 249.8 L 399.6 250.5 L 403.8 251.2 L 408.0 251.9 L 412.3 252.4 L 416.7 253.0 L 421.1 253.5 L 425.6 254.0 L 430.2 254.4 L 434.7 254.8 L 439.3 255.2 L 443.9 255.6 L 448.6 256.0 L 453.2 256.3 L 457.8 256.6 L 462.4 257.0 L 467.0 257.3 L 471.5 257.6 L 475.9 257.9 L 480.3 258.2 L 484.7 258.6 L 488.9 258.9 L 493.1 259.3 L 497.1 259.6 L 501.1 260.0 L 504.9 260.5 L 508.6 260.9 L 512.1 261.4 L 515.5 261.8 L 518.7 262.4 L 521.7 262.9 L 524.5 263.5 L 527.1 264.1 L 529.5 264.8 L 531.6 265.4 L 533.4 266.1 L 535.0 266.8 L 536.3 267.5 L 537.5 268.3 L 538.6 269.0 L 539.6 269.8 L 540.4 270.5 L 541.1 271.2 L 541.6 271.8 L 542.0 272.4 L 542.3 272.9 L 542.6 273.3 L 542.7 273.7 L 542.8 274.0 L 542.8 274.2 L 542.8 274.5 L 542.8 274.8 L 542.7 275.1 L 542.6 275.5 L 542.4 276.0 L 542.0 276.5 L 541.6 277.1 L 541.1 277.8 L 540.4 278.6 L 539.7 279.4 L 538.7 280.2 L 537.7 281.0 L 536.5 281.9 L 535.1 282.8 L 533.7 283.7 L 532.1 284.6 L 530.4 285.5 L 528.5 286.4 L 526.5 287.3 L 524.4 288.2 L 522.2 289.1 L 519.9 289.9 L 517.4 290.8 L 514.8 291.6 L 512.1 292.4 L 509.3 293.2 L 506.4 294.0 L 503.4 294.7 L 497.8 295.8 L 491.9 296.9 L 485.7 298.0 L 479.2 299.0 L 472.5 300.0 L 465.6 300.9 L 458.4 301.8 L 451.1 302.7 L 443.5 303.5 L 435.7 304.3 L 427.8 305.0 L 419.6 305.7 L 411.3 306.3 L 402.9 306.9 L 394.3 307.4 L 385.6 307.9 L 376.8 308.3 L 367.9 308.7 L 358.9 309.1 L 349.8 309.4 L 340.6 309.7 L 331.3 309.9 L 322.0 310.2 L 312.7 310.4 L 303.3 310.7 L 293.9 310.9 L 284.5 311.1 L 275.0 311.3 L 265.6 311.5 L 256.2 311.7 L 246.8 311.9 L 237.5 312.0 L 228.2 312.2 L 218.9 312.3 L 209.7 312.4 L 200.6 312.5 L 191.6 312.6 L 182.6 312.6 L 173.8 312.7 L 165.0 312.6 Z"></path></svg>