<svg xmlns="http://www.w3.org/2000/svg" width="658" height="137" viewBox="0 0 658 137" fill="none" role="img" aria-label="Quill Design System">
  <g transform="translate(8.5 7.4) scale(2.0040)"><path fill="#F1E7D3" d="M34.2316 6.45123L38.0722 6.93131C38.0722 6.93131 39.526 4.25133 40.9527 2.98399C42.3339 1.75709 45.06 0.636927 45.06 0.636927C45.06 0.636927 38.3389 -1.28292 29.8041 1.54375C23.4092 3.66173 20.8427 10.1319 20.8427 10.1319C20.8427 10.1319 21.3885 8.14176 21.9095 6.93178C22.4329 5.7161 23.5098 3.94415 23.5098 3.94415C23.5098 3.94415 21.056 4.21693 17.162 7.46474C13.7142 10.3404 10.921 17.1197 10.921 17.1197C10.921 17.1197 11.3578 15.0909 11.7211 13.8129C12.0868 12.5265 12.788 10.5586 12.788 10.5586C12.788 10.5586 10.0675 13.3862 9.00067 16.9063C8.13749 19.7544 7.7738 24.4276 7.7738 24.4276C7.59673 23.4584 7.32518 22.9457 7.13369 21.9743C6.8983 20.7801 6.97902 20.0772 6.76029 18.88C6.76029 18.88 5.12076 22.5861 5.26671 25.0677C5.42674 27.7886 7.93382 31.2025 7.93382 31.2025C7.93382 31.2025 12.2611 22.0211 16.1485 17.1197C21.056 10.9321 25.4834 8.74495 25.4834 8.74495C25.4834 8.74495 17.5354 14.4527 11.7211 25.9212C6.42144 36.3746 5 49.9252 5 49.9252L8.25388 44.8043C8.25388 44.8043 7.56043 44.0576 7.56043 41.9238C7.56043 38.0105 10.6009 32.3756 10.6009 32.3756C10.6009 32.3756 14.9298 30.0864 17.162 27.9482C19.1028 26.089 21.3761 22.5073 21.3761 22.5073L16.842 24.4276C16.842 24.4276 19.6691 23.0941 24.95 16.9064C27.9007 13.449 33.6448 9.59843 33.6448 9.59843C33.6448 9.59843 31.6373 9.70348 30.3909 9.97191C28.7194 10.3319 26.3369 11.4655 26.3369 11.4655C26.3369 11.4655 28.5877 10.0687 30.3909 9.38515C32.6964 8.51122 36.8987 7.83813 36.8987 7.83813L34.2316 6.45123Z"></path></g>
  <path transform="translate(70 103.86) scale(0.04400 -0.04400)" fill="#F1E7D3" d="M720,1419.4Q867.501,1419.4 989.452,1366.6Q1111.4,1313.8 1200.65,1217.85Q1289.9,1121.9 1338.35,991.25Q1386.8,860.6 1386.8,704.9Q1386.8,542.5 1338.5,408.9Q1290.2,275.3 1201.65,179.1Q1113.1,82.9001 991.652,30.8501Q870.202,-21.2 723.802,-21.2Q575.001,-21.2 452.6,31.05Q330.2,83.2999 241.55,179.15Q152.899,275 104.749,406.75Q56.5991,538.5 56.5991,697.8Q56.5991,858.3 105.399,990.9Q154.199,1123.5 243.049,1219.25Q331.9,1315 453.45,1367.2Q575,1419.4 720,1419.4ZM1169.59,581.694Q1169.59,705.794 1146.29,819.894Q1122.99,933.994 1079.39,1030.7Q1035.8,1127.4 975.146,1199.1Q914.496,1270.8 839.847,1310.6Q765.198,1350.4 679.399,1350.4Q560.002,1350.4 468.404,1286.4Q376.806,1222.4 325.307,1103.1Q273.809,983.804 273.809,818.106Q273.809,693.507 297.258,578.856Q320.708,464.206 364.208,367.705Q407.707,271.205 468.506,199.354Q529.306,127.503 604.405,87.6526Q679.504,47.8021 765.803,47.8021Q885.7,47.8021 976.598,111.201Q1067.5,174.6 1118.54,294.098Q1169.59,413.596 1169.59,581.694ZM774.2,355.2Q768.8,374.201 773.2,386.151Q777.6,398.101 790,400.802Q801.901,403.702 810.601,395.501Q819.301,387.301 826.301,366.101Q876.201,213.401 927.3,114.401Q978.4,15.4017 1032.7,-40.5483Q1087,-96.4982 1145.5,-119.148Q1204,-141.798 1269.2,-141.798Q1312.3,-141.798 1338.2,-134.348Q1364.1,-126.898 1381.15,-116.199Q1398.2,-105.499 1413,-95.9988Q1422.8,-93.1987 1429.8,-96.6989Q1436.8,-100.199 1438.1,-109.899Q1439.7,-116.699 1437.55,-124.85Q1435.4,-133 1428.1,-145.4L1370.2,-236.402Q1355.5,-261.602 1333.45,-273.053Q1311.4,-284.503 1271.9,-284.503Q1196.7,-284.503 1130.15,-252.653Q1063.6,-220.802 1003,-147.252Q942.399,-73.7009 885.899,49.5496Q829.399,172.8 774.2,355.2Z"></path>
  <path transform="translate(131.12 103.86) scale(0.04400 -0.04400)" fill="#F1E7D3" d="M692.599,67.4011L692.599,161.801L690.398,168.401L690.398,725.098Q690.398,742.298 685.099,749.898Q679.798,757.498 666.798,759.698L600.5,760.898Q589.2,764.098 584.3,770.049Q579.4,775.999 579.4,784.499Q579.4,794.399 585.65,801.099Q591.9,807.8 607.001,813.1L791.504,869.701Q811.705,876.901 822.255,879.201Q832.805,881.501 841.706,881.501Q855.906,881.501 863.456,872.501Q871.006,863.501 871.006,848.901L871.006,109.802Q871.006,87.5018 878.756,76.2517Q886.506,65.0016 903.006,60.8016L952.505,51.8016Q963.805,47.6014 969.055,41.0012Q974.305,34.4011 974.305,24.4008Q974.305,13.0004 966.905,6.50021Q959.505,0 945.504,0L756.7,0Q724.599,0 708.599,17.1504Q692.599,34.3008 692.599,67.4011ZM133.598,244L133.598,725.098Q133.598,742.298 128.148,749.898Q122.698,757.498 109.398,759.698L43.1,760.898Q31.7998,764.098 26.8997,770.049Q21.9997,775.999 21.9997,784.499Q21.9997,794.399 28.2498,801.099Q34.5,807.8 49.6003,813.1L234.704,869.701Q255.105,876.901 265.555,879.201Q276.005,881.501 284.905,881.501Q299.106,881.501 306.656,872.501Q314.206,863.501 314.206,848.901L314.206,276.501Q314.206,182.003 358.055,135.754Q401.904,89.5043 472.703,89.5043Q520.502,89.5043 571.801,112.554Q623.1,135.603 678.099,187.102L711.399,218.002L737.5,187.201L700.299,151.601Q603.899,59.4004 523.548,20.3001Q443.198,-18.8002 368.098,-18.8002Q265.098,-18.8002 199.348,47.8499Q133.598,114.5 133.598,244Z"></path>
  <path transform="translate(172.34 103.86) scale(0.04400 -0.04400)" fill="#F1E7D3" d="M331.006,849.701L331.006,109.802Q331.006,87.4019 338.306,76.4518Q345.606,65.5016 363.006,60.8016L412.505,51.8016Q423.605,47.8014 428.955,41.1012Q434.305,34.4011 434.305,24.4008Q434.305,13.0004 426.905,6.50021Q419.504,0 405.504,0L74.1002,0Q60.6998,0 53.2996,6.50021Q45.8994,13.0004 45.8994,24.4008Q45.8994,33.8011 51.1495,40.3513Q56.3995,46.9014 67.0997,51.2016L118.399,60.8016Q135.998,65.5016 143.198,76.4518Q150.398,87.4019 150.398,109.202L150.398,725.898Q150.398,743.098 145.098,750.698Q139.798,758.298 126.798,760.498L60.4999,761.698Q49.1997,764.898 44.2997,770.849Q39.3996,776.799 39.3996,785.299Q39.3996,795.199 45.6497,801.899Q51.8999,808.6 67.0002,813.9L251.504,870.501Q271.905,877.701 282.355,880.001Q292.805,882.301 301.705,882.301Q315.906,882.301 323.456,873.301Q331.006,864.301 331.006,849.701ZM231.002,1046.9Q176.901,1046.9 143.65,1081Q110.399,1115.1 110.399,1167.1Q110.399,1219.7 143.95,1253.8Q177.501,1287.9 231.002,1287.9Q285.304,1287.9 319.005,1253.8Q352.706,1219.7 352.706,1167.4Q352.706,1115.1 318.855,1081Q285.004,1046.9 231.002,1046.9Z"></path>
  <path transform="translate(189.86 103.86) scale(0.04400 -0.04400)" fill="#F1E7D3" d="M330.406,1439L330.406,109.802Q330.406,87.2018 337.706,76.2517Q345.006,65.3016 362.406,60.8016L411.905,51.8016Q423.205,47.6014 428.455,41.0012Q433.705,34.4011 433.705,24.4008Q433.705,13.0004 426.305,6.50021Q418.905,0 404.904,0L73.5004,0Q60.3,0 52.7998,6.50021Q45.2996,13.0004 45.2996,24.4008Q45.2996,34.1011 51.1497,41.0012Q56.9997,47.9014 68.8998,52.4016L117.799,60.8016Q135.399,65.3016 142.598,76.2517Q149.798,87.2018 149.798,109.202L149.798,1315.2Q149.798,1332.4 144.498,1340Q139.198,1347.6 126.198,1349.8L59.9001,1351Q48.5999,1354.2 43.6999,1360.15Q38.7998,1366.1 38.7998,1374.6Q38.7998,1384.5 45.05,1391.2Q51.3001,1397.9 66.4005,1403.2L250.904,1459.8Q271.305,1467 281.755,1469.3Q292.205,1471.6 301.106,1471.6Q315.306,1471.6 322.856,1462.6Q330.406,1453.6 330.406,1439Z"></path>
  <path transform="translate(208.78 103.86) scale(0.04400 -0.04400)" fill="#F1E7D3" d="M330.406,1439L330.406,109.802Q330.406,87.2018 337.706,76.2517Q345.006,65.3016 362.406,60.8016L411.905,51.8016Q423.205,47.6014 428.455,41.0012Q433.705,34.4011 433.705,24.4008Q433.705,13.0004 426.305,6.50021Q418.905,0 404.904,0L73.5004,0Q60.3,0 52.7998,6.50021Q45.2996,13.0004 45.2996,24.4008Q45.2996,34.1011 51.1497,41.0012Q56.9997,47.9014 68.8998,52.4016L117.799,60.8016Q135.399,65.3016 142.598,76.2517Q149.798,87.2018 149.798,109.202L149.798,1315.2Q149.798,1332.4 144.498,1340Q139.198,1347.6 126.198,1349.8L59.9001,1351Q48.5999,1354.2 43.6999,1360.15Q38.7998,1366.1 38.7998,1374.6Q38.7998,1384.5 45.05,1391.2Q51.3001,1397.9 66.4005,1403.2L250.904,1459.8Q271.305,1467 281.755,1469.3Q292.205,1471.6 301.106,1471.6Q315.306,1471.6 322.856,1462.6Q330.406,1453.6 330.406,1439Z"></path>
  <rect x="263.0" y="40.00" width="1" height="64" fill="rgba(241,231,211,0.18)"></rect>
  <path transform="translate(299.02 84.10) scale(0.03400 -0.03400)" fill="#93856E" d="M85,0L85,710L331,710Q445,710 521.5,662.5Q598,615 636,534.5Q674,454 674,356Q674,248 632,168Q590,88 513,44Q436,0 331,0L85,0ZM583,356Q583,436 553.5,498Q524,560 468,595Q412,630 331,630L175,630L175,80L331,80Q413,80 469,116.5Q525,153 554,215.5Q583,278 583,356Z"></path>
  <path transform="translate(330.16 84.10) scale(0.03400 -0.03400)" fill="#93856E" d="M567,80L567,0L85,0L85,710L558,710L558,630L175,630L175,400L508,400L508,325L175,325L175,80L567,80Z"></path>
  <path transform="translate(357.53 84.10) scale(0.03400 -0.03400)" fill="#93856E" d="M502,561Q490,575 470,588Q450,601 425,611.5Q400,622 370.5,628.5Q341,635 309,635Q227,635 188,604Q149,573 149,519Q149,481 169,459Q189,437 230.5,423Q272,409 336,394Q410,378 464,355Q518,332 547,293.5Q576,255 576,191Q576,140 556.5,102.5Q537,65 502,40.5Q467,16 420,4.5Q373,-7 318,-7Q264,-7 212.5,4.5Q161,16 115,38Q69,60 29,93L72,169Q88,152 113.5,135.5Q139,119 171.5,105Q204,91 242,82.5Q280,74 320,74Q396,74 438,101.5Q480,129 480,182Q480,222 456.5,246Q433,270 387,286Q341,302 275,318Q203,336 154,357.5Q105,379 80.5,414Q56,449 56,505Q56,573 89,620Q122,667 180,691Q238,715 311,715Q359,715 400.5,705Q442,695 478,677Q514,659 544,634L502,561Z"></path>
  <path transform="translate(385.04 84.10) scale(0.03400 -0.03400)" fill="#93856E" d="M85,0L85,710L175,710L175,0L85,0Z"></path>
  <path transform="translate(400.68 84.10) scale(0.03400 -0.03400)" fill="#93856E" d="M370,-5Q300,-5 239.5,25.5Q179,56 134,107.5Q89,159 64,223.5Q39,288 39,357Q39,429 64,493.5Q89,558 133.5,608Q178,658 238.5,686.5Q299,715 370,715Q473,715 540,672Q607,629 641,560L572,512Q541,574 487,604Q433,634 368,634Q314,634 270,611Q226,588 194.5,548.5Q163,509 146.5,459Q130,409 130,355Q130,298 148.5,247.5Q167,197 201,158.5Q235,120 280,98Q325,76 377,76Q438,76 493,107Q548,138 597,202L597,109Q501,-5 370,-5ZM586,286L433,286L433,354L662,354L662,0L586,0L586,286Z"></path>
  <path transform="translate(431.75 84.10) scale(0.03400 -0.03400)" fill="#93856E" d="M175,544L175,0L85,0L85,710L161,710L595,155L595,709L685,709L685,0L603,0L175,544Z"></path>
  <path transform="translate(480.13 84.10) scale(0.03400 -0.03400)" fill="#93856E" d="M502,561Q490,575 470,588Q450,601 425,611.5Q400,622 370.5,628.5Q341,635 309,635Q227,635 188,604Q149,573 149,519Q149,481 169,459Q189,437 230.5,423Q272,409 336,394Q410,378 464,355Q518,332 547,293.5Q576,255 576,191Q576,140 556.5,102.5Q537,65 502,40.5Q467,16 420,4.5Q373,-7 318,-7Q264,-7 212.5,4.5Q161,16 115,38Q69,60 29,93L72,169Q88,152 113.5,135.5Q139,119 171.5,105Q204,91 242,82.5Q280,74 320,74Q396,74 438,101.5Q480,129 480,182Q480,222 456.5,246Q433,270 387,286Q341,302 275,318Q203,336 154,357.5Q105,379 80.5,414Q56,449 56,505Q56,573 89,620Q122,667 180,691Q238,715 311,715Q359,715 400.5,705Q442,695 478,677Q514,659 544,634L502,561Z"></path>
  <path transform="translate(507.03 84.10) scale(0.03400 -0.03400)" fill="#93856E" d="M112,710L327,340L544,710L642,710L372,259L372,0L282,0L282,261L13,710L112,710Z"></path>
  <path transform="translate(535.18 84.10) scale(0.03400 -0.03400)" fill="#93856E" d="M502,561Q490,575 470,588Q450,601 425,611.5Q400,622 370.5,628.5Q341,635 309,635Q227,635 188,604Q149,573 149,519Q149,481 169,459Q189,437 230.5,423Q272,409 336,394Q410,378 464,355Q518,332 547,293.5Q576,255 576,191Q576,140 556.5,102.5Q537,65 502,40.5Q467,16 420,4.5Q373,-7 318,-7Q264,-7 212.5,4.5Q161,16 115,38Q69,60 29,93L72,169Q88,152 113.5,135.5Q139,119 171.5,105Q204,91 242,82.5Q280,74 320,74Q396,74 438,101.5Q480,129 480,182Q480,222 456.5,246Q433,270 387,286Q341,302 275,318Q203,336 154,357.5Q105,379 80.5,414Q56,449 56,505Q56,573 89,620Q122,667 180,691Q238,715 311,715Q359,715 400.5,705Q442,695 478,677Q514,659 544,634L502,561Z"></path>
  <path transform="translate(562.69 84.10) scale(0.03400 -0.03400)" fill="#93856E" d="M597,630L352,630L352,0L262,0L262,630L17,630L17,710L597,710L597,630Z"></path>
  <path transform="translate(590.36 84.10) scale(0.03400 -0.03400)" fill="#93856E" d="M567,80L567,0L85,0L85,710L558,710L558,630L175,630L175,400L508,400L508,325L175,325L175,80L567,80Z"></path>
  <path transform="translate(617.73 84.10) scale(0.03400 -0.03400)" fill="#93856E" d="M699,0L699,542L465,125L410,125L175,542L175,0L85,0L85,710L180,710L437,249L695,710L789,710L789,0L699,0Z"></path>
</svg>