<svg xmlns="http://www.w3.org/2000/svg" width="215" height="38" viewBox="0 0 215 38" fill="none" role="img" aria-label="Quill Design System">
  <g transform="translate(2.2 1.45) scale(0.5460)"><path fill="#F1E7D3" d="M34.2316 6.45123L38.0722 6.93131C38.0722 6.93131 39.526 4.25133 40.9527 2.98399C42.3339 1.75709 45.06 0.636927 45.06 0.636927C45.06 0.636927 38.3389 -1.28292 29.8041 1.54375C23.4092 3.66173 20.8427 10.1319 20.8427 10.1319C20.8427 10.1319 21.3885 8.14176 21.9095 6.93178C22.4329 5.7161 23.5098 3.94415 23.5098 3.94415C23.5098 3.94415 21.056 4.21693 17.162 7.46474C13.7142 10.3404 10.921 17.1197 10.921 17.1197C10.921 17.1197 11.3578 15.0909 11.7211 13.8129C12.0868 12.5265 12.788 10.5586 12.788 10.5586C12.788 10.5586 10.0675 13.3862 9.00067 16.9063C8.13749 19.7544 7.7738 24.4276 7.7738 24.4276C7.59673 23.4584 7.32518 22.9457 7.13369 21.9743C6.8983 20.7801 6.97902 20.0772 6.76029 18.88C6.76029 18.88 5.12076 22.5861 5.26671 25.0677C5.42674 27.7886 7.93382 31.2025 7.93382 31.2025C7.93382 31.2025 12.2611 22.0211 16.1485 17.1197C21.056 10.9321 25.4834 8.74495 25.4834 8.74495C25.4834 8.74495 17.5354 14.4527 11.7211 25.9212C6.42144 36.3746 5 49.9252 5 49.9252L8.25388 44.8043C8.25388 44.8043 7.56043 44.0576 7.56043 41.9238C7.56043 38.0105 10.6009 32.3756 10.6009 32.3756C10.6009 32.3756 14.9298 30.0864 17.162 27.9482C19.1028 26.089 21.3761 22.5073 21.3761 22.5073L16.842 24.4276C16.842 24.4276 19.6691 23.0941 24.95 16.9064C27.9007 13.449 33.6448 9.59843 33.6448 9.59843C33.6448 9.59843 31.6373 9.70348 30.3909 9.97191C28.7194 10.3319 26.3369 11.4655 26.3369 11.4655C26.3369 11.4655 28.5877 10.0687 30.3909 9.38515C32.6964 8.51122 36.8987 7.83813 36.8987 7.83813L34.2316 6.45123Z"></path></g>
  <path transform="translate(19 27.73) scale(0.01200 -0.01200)" fill="#F1E7D3" d="M785.489,1432.02Q943.306,1432.02 1072.86,1377.42Q1202.4,1322.83 1295.98,1223.7Q1389.56,1124.57 1440.22,989.823Q1490.88,855.074 1490.88,694.308Q1490.88,534.395 1440.56,400.795Q1390.23,267.195 1297.26,169.521Q1204.29,71.8471 1075.01,18.3232Q945.73,-35.2006 788.092,-35.2006Q631.646,-35.2006 502.798,19.3981Q373.951,73.9968 281.063,173.485Q188.176,272.973 137.677,408.914Q87.1787,544.855 87.1787,707.748Q87.1787,864.655 136.992,996.887Q186.805,1129.12 279.063,1226.66Q371.321,1324.21 499.826,1378.11Q628.33,1432.02 785.489,1432.02ZM1253.04,566.865Q1253.04,693.636 1226.98,808.059Q1200.92,922.482 1153.49,1017.48Q1106.07,1112.47 1041.23,1182.19Q976.392,1251.91 898.012,1290.29Q819.633,1328.66 732.361,1328.66Q611.214,1328.66 520.307,1267.79Q429.4,1206.93 378.96,1095.18Q328.521,983.435 328.521,830.632Q328.521,702.625 354.504,587.56Q380.486,472.495 427.762,377.054Q475.038,281.612 539.706,211.88Q604.374,142.148 682.236,104.048Q760.099,65.9479 846.121,65.9479Q967.584,65.9479 1059.13,126.445Q1150.67,186.943 1201.86,299.21Q1253.04,411.478 1253.04,566.865ZM823.017,350.226Q816.511,378.713 824.826,399Q833.141,419.286 856.134,421.71Q877.522,424.334 891.15,410.469Q904.778,396.604 912.791,367.113Q951.454,237.625 998.133,148.159Q1044.81,58.6926 1100.68,3.80224Q1156.54,-51.0881 1221.95,-75.8564Q1287.36,-100.625 1363.15,-100.625Q1400.91,-100.625 1422.89,-94.6023Q1444.88,-88.5798 1460.64,-81.3338Q1476.4,-74.0878 1493.14,-69.746Q1506.8,-67.3146 1515.74,-74.7754Q1524.67,-82.2363 1524.78,-96.3579Q1524.9,-106.198 1522.34,-117.296Q1519.77,-128.393 1511.55,-143.096L1473.92,-210.241Q1458.76,-238.205 1438.32,-250.991Q1417.88,-263.777 1374.69,-263.777Q1285.03,-263.777 1202.96,-229.071Q1120.89,-194.366 1049.38,-120.77Q977.861,-47.1736 920.486,69.5829Q863.111,186.339 823.017,350.226Z"></path>
  <path transform="translate(37.48 27.73) scale(0.01200 -0.01200)" fill="#F1E7D3" d="M806.813,112.168L806.813,182.986L800.192,190.876L800.192,732.281Q800.192,759.153 791.345,770.806Q782.499,782.458 764.249,785.396L699.333,788.254Q682.23,792.375 673.507,801.273Q664.784,810.17 664.784,824.105Q664.784,839.624 675.041,850.377Q685.298,861.13 708.873,869.286L868.598,924.598Q898.378,935.574 919.245,941.559Q940.111,947.543 957.578,947.543Q982.555,947.543 995.954,932.878Q1009.35,918.213 1009.35,893.02L1009.35,159.081Q1009.35,128.399 1020.33,113.51Q1031.3,98.622 1051.58,92.4876L1092.51,82.5666Q1111.46,75.7873 1120.94,65.7329Q1130.43,55.6786 1130.43,39.8754Q1130.43,21.4746 1117.64,10.7373Q1104.85,0 1079.98,0L911.444,0Q862.947,0 834.88,28.8948Q806.813,57.7897 806.813,112.168ZM180.02,267.212L180.02,732.281Q180.02,759.153 171.162,770.806Q162.304,782.458 144.031,785.396L79.114,788.254Q62.011,792.375 53.2885,801.273Q44.5659,810.17 44.5659,824.105Q44.5659,839.624 54.8228,850.377Q65.0797,861.13 88.6542,869.286L248.427,924.598Q278.776,935.759 299.542,941.651Q320.309,947.543 336.67,947.543Q362.2,947.543 375.691,932.878Q389.182,918.213 389.182,893.02L389.182,309.017Q389.182,212.399 435.887,163.295Q482.592,114.19 559.562,114.19Q609.756,114.19 667.042,140.417Q724.328,166.644 788.998,223.301L832.798,261.938L876.491,214.926L828.331,171.497Q715.719,68.0586 626.111,22.0502Q536.504,-23.9582 454.864,-23.9582Q332.982,-23.9582 256.501,55.1267Q180.02,134.212 180.02,267.212Z"></path>
  <path transform="translate(51.42 27.73) scale(0.01200 -0.01200)" fill="#F1E7D3" d="M417.219,893.36L417.219,159.081Q417.219,128.391 428.157,113.526Q439.095,98.6615 459.443,92.4876L500.376,82.5666Q519.029,75.8031 528.662,65.7408Q538.295,55.6786 538.295,39.8754Q538.295,21.1983 525.506,10.5991Q512.718,0 487.848,0L135.628,0Q111.543,0 98.6624,10.5991Q85.7816,21.1983 85.7816,39.8754Q85.7816,55.3549 95.2687,65.4053Q104.756,75.4557 123.101,82.2429L165.834,92.4876Q186.381,98.9378 197.219,113.526Q208.057,128.115 208.057,158.758L208.057,732.62Q208.057,759.492 199.211,771.145Q190.365,782.798 172.115,785.735L107.198,788.593Q90.0952,792.714 81.3727,801.612Q72.6501,810.51 72.6501,824.445Q72.6501,839.964 82.907,850.717Q93.1639,861.47 116.738,869.625L276.464,924.937Q306.812,936.098 327.579,941.99Q348.345,947.883 364.707,947.883Q390.237,947.883 403.728,933.218Q417.219,918.553 417.219,893.36ZM288.846,1131.45Q223.967,1131.45 183.578,1167.53Q143.189,1203.61 143.189,1260.5Q143.189,1317.06 183.602,1352.5Q224.015,1387.93 288.846,1387.93Q354.845,1387.93 395.547,1352.36Q436.248,1316.78 436.248,1260.52Q436.248,1203.61 395.535,1167.53Q354.822,1131.45 288.846,1131.45Z"></path>
  <path transform="translate(58.11 27.73) scale(0.01200 -0.01200)" fill="#F1E7D3" d="M417.172,1420.39L417.172,159.081Q417.172,128.375 428.11,113.51Q439.048,98.6457 459.395,92.4876L500.328,82.5666Q518.997,75.7873 528.622,65.7329Q538.248,55.6786 538.248,39.8754Q538.248,21.1983 525.459,10.5991Q512.67,0 487.801,0L135.581,0Q111.512,0 98.6229,10.5991Q85.7343,21.1983 85.7343,39.8754Q85.7343,55.3786 95.2687,65.4566Q104.803,75.5347 123.243,82.3376L165.786,92.4876Q186.334,98.922 197.172,113.51Q208.01,128.099 208.01,158.758L208.01,1259.66Q208.01,1286.53 199.164,1298.18Q190.317,1309.83 172.067,1312.77L107.151,1315.63Q90.0479,1319.56 81.3253,1328.55Q72.6027,1337.54 72.6027,1351.48Q72.6027,1367 82.8596,1377.75Q93.1166,1388.5 116.691,1396.66L276.417,1451.97Q306.765,1463.13 327.532,1469.03Q348.298,1474.92 364.659,1474.92Q390.189,1474.92 403.681,1460.25Q417.172,1445.59 417.172,1420.39Z"></path>
  <path transform="translate(65.19 27.73) scale(0.01200 -0.01200)" fill="#F1E7D3" d="M417.172,1420.39L417.172,159.081Q417.172,128.375 428.11,113.51Q439.048,98.6457 459.395,92.4876L500.328,82.5666Q518.997,75.7873 528.622,65.7329Q538.248,55.6786 538.248,39.8754Q538.248,21.1983 525.459,10.5991Q512.67,0 487.801,0L135.581,0Q111.512,0 98.6229,10.5991Q85.7343,21.1983 85.7343,39.8754Q85.7343,55.3786 95.2687,65.4566Q104.803,75.5347 123.243,82.3376L165.786,92.4876Q186.334,98.922 197.172,113.51Q208.01,128.099 208.01,158.758L208.01,1259.66Q208.01,1286.53 199.164,1298.18Q190.317,1309.83 172.067,1312.77L107.151,1315.63Q90.0479,1319.56 81.3253,1328.55Q72.6027,1337.54 72.6027,1351.48Q72.6027,1367 82.8596,1377.75Q93.1166,1388.5 116.691,1396.66L276.417,1451.97Q306.765,1463.13 327.532,1469.03Q348.298,1474.92 364.659,1474.92Q390.189,1474.92 403.681,1460.25Q417.172,1445.59 417.172,1420.39Z"></path>
  <rect x="84.4" y="10.10" width="1" height="18" fill="rgba(241,231,211,0.18)"></rect>
  <path transform="translate(98.39 22.98) scale(0.01100 -0.01100)" fill="#93856E" d="M85,0L85,710L331,710Q445,710 521.5,662.5Q598,615 636,534.5Q674,454 674,356Q674,248 632,168Q590,88 513,44Q436,0 331,0L85,0ZM583,356Q583,436 553.5,498Q524,560 468,595Q412,630 331,630L175,630L175,80L331,80Q413,80 469,116.5Q525,153 554,215.5Q583,278 583,356Z"></path>
  <path transform="translate(108.46 22.98) scale(0.01100 -0.01100)" fill="#93856E" d="M567,80L567,0L85,0L85,710L558,710L558,630L175,630L175,400L508,400L508,325L175,325L175,80L567,80Z"></path>
  <path transform="translate(117.32 22.98) scale(0.01100 -0.01100)" fill="#93856E" d="M502,561Q490,575 470,588Q450,601 425,611.5Q400,622 370.5,628.5Q341,635 309,635Q227,635 188,604Q149,573 149,519Q149,481 169,459Q189,437 230.5,423Q272,409 336,394Q410,378 464,355Q518,332 547,293.5Q576,255 576,191Q576,140 556.5,102.5Q537,65 502,40.5Q467,16 420,4.5Q373,-7 318,-7Q264,-7 212.5,4.5Q161,16 115,38Q69,60 29,93L72,169Q88,152 113.5,135.5Q139,119 171.5,105Q204,91 242,82.5Q280,74 320,74Q396,74 438,101.5Q480,129 480,182Q480,222 456.5,246Q433,270 387,286Q341,302 275,318Q203,336 154,357.5Q105,379 80.5,414Q56,449 56,505Q56,573 89,620Q122,667 180,691Q238,715 311,715Q359,715 400.5,705Q442,695 478,677Q514,659 544,634L502,561Z"></path>
  <path transform="translate(126.22 22.98) scale(0.01100 -0.01100)" fill="#93856E" d="M85,0L85,710L175,710L175,0L85,0Z"></path>
  <path transform="translate(131.28 22.98) scale(0.01100 -0.01100)" fill="#93856E" d="M370,-5Q300,-5 239.5,25.5Q179,56 134,107.5Q89,159 64,223.5Q39,288 39,357Q39,429 64,493.5Q89,558 133.5,608Q178,658 238.5,686.5Q299,715 370,715Q473,715 540,672Q607,629 641,560L572,512Q541,574 487,604Q433,634 368,634Q314,634 270,611Q226,588 194.5,548.5Q163,509 146.5,459Q130,409 130,355Q130,298 148.5,247.5Q167,197 201,158.5Q235,120 280,98Q325,76 377,76Q438,76 493,107Q548,138 597,202L597,109Q501,-5 370,-5ZM586,286L433,286L433,354L662,354L662,0L586,0L586,286Z"></path>
  <path transform="translate(141.33 22.98) scale(0.01100 -0.01100)" fill="#93856E" d="M175,544L175,0L85,0L85,710L161,710L595,155L595,709L685,709L685,0L603,0L175,544Z"></path>
  <path transform="translate(156.99 22.98) scale(0.01100 -0.01100)" fill="#93856E" d="M502,561Q490,575 470,588Q450,601 425,611.5Q400,622 370.5,628.5Q341,635 309,635Q227,635 188,604Q149,573 149,519Q149,481 169,459Q189,437 230.5,423Q272,409 336,394Q410,378 464,355Q518,332 547,293.5Q576,255 576,191Q576,140 556.5,102.5Q537,65 502,40.5Q467,16 420,4.5Q373,-7 318,-7Q264,-7 212.5,4.5Q161,16 115,38Q69,60 29,93L72,169Q88,152 113.5,135.5Q139,119 171.5,105Q204,91 242,82.5Q280,74 320,74Q396,74 438,101.5Q480,129 480,182Q480,222 456.5,246Q433,270 387,286Q341,302 275,318Q203,336 154,357.5Q105,379 80.5,414Q56,449 56,505Q56,573 89,620Q122,667 180,691Q238,715 311,715Q359,715 400.5,705Q442,695 478,677Q514,659 544,634L502,561Z"></path>
  <path transform="translate(165.69 22.98) scale(0.01100 -0.01100)" fill="#93856E" d="M112,710L327,340L544,710L642,710L372,259L372,0L282,0L282,261L13,710L112,710Z"></path>
  <path transform="translate(174.79 22.98) scale(0.01100 -0.01100)" fill="#93856E" d="M502,561Q490,575 470,588Q450,601 425,611.5Q400,622 370.5,628.5Q341,635 309,635Q227,635 188,604Q149,573 149,519Q149,481 169,459Q189,437 230.5,423Q272,409 336,394Q410,378 464,355Q518,332 547,293.5Q576,255 576,191Q576,140 556.5,102.5Q537,65 502,40.5Q467,16 420,4.5Q373,-7 318,-7Q264,-7 212.5,4.5Q161,16 115,38Q69,60 29,93L72,169Q88,152 113.5,135.5Q139,119 171.5,105Q204,91 242,82.5Q280,74 320,74Q396,74 438,101.5Q480,129 480,182Q480,222 456.5,246Q433,270 387,286Q341,302 275,318Q203,336 154,357.5Q105,379 80.5,414Q56,449 56,505Q56,573 89,620Q122,667 180,691Q238,715 311,715Q359,715 400.5,705Q442,695 478,677Q514,659 544,634L502,561Z"></path>
  <path transform="translate(183.69 22.98) scale(0.01100 -0.01100)" fill="#93856E" d="M597,630L352,630L352,0L262,0L262,630L17,630L17,710L597,710L597,630Z"></path>
  <path transform="translate(192.65 22.98) scale(0.01100 -0.01100)" fill="#93856E" d="M567,80L567,0L85,0L85,710L558,710L558,630L175,630L175,400L508,400L508,325L175,325L175,80L567,80Z"></path>
  <path transform="translate(201.5 22.98) scale(0.01100 -0.01100)" fill="#93856E" d="M699,0L699,542L465,125L410,125L175,542L175,0L85,0L85,710L180,710L437,249L695,710L789,710L789,0L699,0Z"></path>
</svg>